<svg width="1779" height="219" viewBox="0 0 1779 219" fill="none" xmlns="http://www.w3.org/2000/svg">
<path d="M357 130C368.046 130 377 120.598 377 109C377 97.4017 368.046 88 357 88C345.954 88 337 97.4017 337 109C337 120.598 345.954 130 357 130Z" stroke="#1A1A1A" stroke-width="4" stroke-linecap="round" stroke-linejoin="round"/>
<path d="M363 117.4L357 100.6L351 117.4M361 113.2H353" stroke="#1A1A1A" stroke-width="4" stroke-linecap="round" stroke-linejoin="round"/>
<path d="M157 130C168.046 130 177 120.598 177 109C177 97.4017 168.046 88 157 88C145.954 88 137 97.4017 137 109C137 120.598 145.954 130 157 130Z" stroke="#1A1A1A" stroke-width="4" stroke-linecap="round" stroke-linejoin="round"/>
<path d="M158.198 108.635C163.268 108.635 163.268 117.4 158.198 117.4H152V108.635M158.198 108.635H152M158.198 108.635C163.268 108.635 163.268 100.6 158.198 100.6H152V108.635" stroke="#1A1A1A" stroke-width="4" stroke-linecap="round" stroke-linejoin="round"/>
<path d="M1563 117.4L1551 100.6M1551 117.4L1563 100.6M1557 130C1568.05 130 1577 120.598 1577 109C1577 97.4017 1568.05 88 1557 88C1545.95 88 1537 97.4017 1537 109C1537 120.598 1545.95 130 1557 130Z" stroke="#1A1A1A" stroke-width="4" stroke-linecap="round" stroke-linejoin="round"/>
<path d="M1751 100.6L1757 111.1M1757 130C1768.05 130 1777 120.598 1777 109C1777 97.4017 1768.05 88 1757 88C1745.95 88 1737 97.4017 1737 109C1737 120.598 1745.95 130 1757 130Z" stroke="#1A1A1A" stroke-width="4" stroke-linecap="round" stroke-linejoin="round"/>
<path d="M1757 117.4V111.1L1763 100.6" stroke="#1A1A1A" stroke-width="4" stroke-linecap="round" stroke-linejoin="round"/>
<path d="M1155.6 104.38L1151.6 100.18C1151.4 99.97 1151.25 99.7341 1151.15 99.4723C1151.05 99.2105 1151 98.9389 1151 98.6575V90.1C1151 89.505 1151.19 89.0066 1151.58 88.6048C1151.96 88.203 1152.43 88.0014 1153 88H1161C1161.57 88 1162.04 88.2016 1162.43 88.6048C1162.81 89.008 1163 89.5064 1163 90.1V98.6575C1163 98.9375 1162.95 99.2091 1162.85 99.4723C1162.75 99.7355 1162.6 99.9714 1162.4 100.18L1158.4 104.38C1158.2 104.59 1157.98 104.739 1157.75 104.827C1157.52 104.915 1157.27 104.959 1157 104.957C1156.73 104.956 1156.48 104.913 1156.25 104.827C1156.02 104.742 1155.8 104.593 1155.6 104.38ZM1161.4 110.47C1161.2 110.26 1161.06 110.032 1160.98 109.787C1160.89 109.542 1160.85 109.28 1160.85 109C1160.85 108.72 1160.89 108.457 1160.98 108.212C1161.06 107.967 1161.2 107.74 1161.4 107.53L1165.4 103.33C1165.6 103.12 1165.83 102.962 1166.08 102.857C1166.33 102.752 1166.58 102.7 1166.85 102.7H1175C1175.57 102.7 1176.04 102.902 1176.43 103.305C1176.81 103.708 1177 104.206 1177 104.8V113.2C1177 113.795 1176.81 114.294 1176.42 114.697C1176.04 115.1 1175.57 115.301 1175 115.3H1166.85C1166.58 115.3 1166.33 115.247 1166.08 115.142C1165.83 115.037 1165.6 114.88 1165.4 114.67L1161.4 110.47ZM1137 113.2V104.8C1137 104.205 1137.19 103.707 1137.58 103.305C1137.96 102.903 1138.43 102.701 1139 102.7H1147.15C1147.42 102.7 1147.68 102.752 1147.93 102.857C1148.18 102.962 1148.4 103.12 1148.6 103.33L1152.6 107.53C1152.8 107.74 1152.94 107.967 1153.03 108.212C1153.11 108.457 1153.15 108.72 1153.15 109C1153.15 109.28 1153.11 109.542 1153.03 109.787C1152.94 110.032 1152.8 110.26 1152.6 110.47L1148.6 114.67C1148.4 114.88 1148.18 115.037 1147.93 115.142C1147.68 115.247 1147.42 115.3 1147.15 115.3H1139C1138.43 115.3 1137.96 115.098 1137.58 114.695C1137.19 114.292 1137 113.794 1137 113.2ZM1151 127.9V119.342C1151 119.062 1151.05 118.792 1151.15 118.53C1151.25 118.268 1151.4 118.031 1151.6 117.82L1155.6 113.62C1155.8 113.41 1156.02 113.262 1156.25 113.175C1156.48 113.088 1156.73 113.044 1157 113.042C1157.27 113.041 1157.52 113.085 1157.75 113.175C1157.98 113.264 1158.2 113.413 1158.4 113.62L1162.4 117.82C1162.6 118.03 1162.75 118.267 1162.85 118.53C1162.95 118.793 1163 119.064 1163 119.342V127.9C1163 128.495 1162.81 128.994 1162.42 129.397C1162.04 129.8 1161.57 130.001 1161 130H1153C1152.43 130 1151.96 129.798 1151.58 129.395C1151.19 128.992 1151 128.494 1151 127.9Z" fill="#1A1A1A"/>
<path d="M790.524 107.73C788.094 96.2904 784.436 90.1845 779.01 88.5167C777.87 88.1684 776.687 87.9944 775.498 88.0001C773.927 88.0001 772.559 88.3986 771.112 88.8209C769.368 89.3303 767.386 89.909 764.498 89.909C761.609 89.909 759.626 89.3315 757.879 88.8221C756.431 88.3986 755.063 88.0001 753.497 88.0001C752.268 87.9956 751.044 88.1691 749.861 88.5155C744.464 90.1762 740.808 96.2796 738.342 107.723C735.691 120.037 736.996 127.812 742.002 129.616C742.689 129.868 743.411 129.998 744.138 130C747.568 130 750.318 127.026 752.198 124.591C754.321 121.835 756.806 120.437 764.498 120.437C771.367 120.437 774.21 121.407 776.666 124.591C778.209 126.593 779.668 127.993 781.123 128.875C783.059 130.047 784.993 130.307 786.871 129.635C789.83 128.584 791.526 125.805 791.913 121.375C792.208 117.977 791.754 113.514 790.524 107.73ZM758.997 107.088H755.33V110.906C755.33 111.412 755.137 111.898 754.793 112.256C754.45 112.614 753.983 112.815 753.497 112.815C753.011 112.815 752.544 112.614 752.201 112.256C751.857 111.898 751.664 111.412 751.664 110.906V107.088H747.997C747.51 107.088 747.044 106.887 746.7 106.529C746.356 106.171 746.163 105.686 746.163 105.179C746.163 104.673 746.356 104.188 746.7 103.83C747.044 103.472 747.51 103.271 747.997 103.271H751.664V99.453C751.664 98.9468 751.857 98.4613 752.201 98.1033C752.544 97.7453 753.011 97.5442 753.497 97.5442C753.983 97.5442 754.45 97.7453 754.793 98.1033C755.137 98.4613 755.33 98.9468 755.33 99.453V103.271H758.997C759.484 103.271 759.95 103.472 760.294 103.83C760.638 104.188 760.831 104.673 760.831 105.179C760.831 105.686 760.638 106.171 760.294 106.529C759.95 106.887 759.484 107.088 758.997 107.088ZM768.623 107.565C768.17 107.565 767.727 107.426 767.35 107.163C766.973 106.901 766.679 106.529 766.506 106.093C766.332 105.657 766.287 105.177 766.375 104.714C766.464 104.251 766.682 103.826 767.002 103.492C767.323 103.159 767.731 102.931 768.176 102.839C768.62 102.747 769.081 102.794 769.5 102.975C769.919 103.156 770.277 103.461 770.528 103.854C770.78 104.246 770.915 104.708 770.915 105.179C770.915 105.812 770.673 106.419 770.243 106.867C769.814 107.314 769.231 107.565 768.623 107.565ZM773.665 112.815C773.211 112.815 772.768 112.675 772.391 112.412C772.014 112.15 771.72 111.777 771.547 111.34C771.374 110.904 771.329 110.424 771.418 109.961C771.506 109.498 771.725 109.073 772.046 108.739C772.367 108.406 772.776 108.179 773.221 108.088C773.666 107.996 774.127 108.045 774.546 108.226C774.965 108.408 775.322 108.714 775.573 109.107C775.824 109.501 775.958 109.963 775.957 110.435C775.955 111.066 775.713 111.672 775.283 112.118C774.854 112.564 774.272 112.815 773.665 112.815ZM773.665 102.316C773.212 102.316 772.768 102.176 772.392 101.914C772.015 101.652 771.721 101.279 771.547 100.843C771.374 100.407 771.329 99.9276 771.417 99.4647C771.506 99.0019 771.724 98.5767 772.044 98.2431C772.365 97.9094 772.773 97.6821 773.218 97.5901C773.662 97.498 774.123 97.5452 774.542 97.7258C774.961 97.9064 775.319 98.2122 775.57 98.6046C775.822 98.997 775.957 99.4583 775.957 99.9302C775.957 100.563 775.715 101.17 775.285 101.617C774.856 102.065 774.273 102.316 773.665 102.316ZM778.707 107.565C778.254 107.565 777.81 107.426 777.434 107.163C777.057 106.901 776.763 106.529 776.589 106.093C776.416 105.657 776.371 105.177 776.459 104.714C776.547 104.251 776.766 103.826 777.086 103.492C777.407 103.159 777.815 102.931 778.26 102.839C778.704 102.747 779.165 102.794 779.584 102.975C780.003 103.156 780.361 103.461 780.612 103.854C780.864 104.246 780.999 104.708 780.999 105.179C780.999 105.812 780.757 106.419 780.327 106.867C779.898 107.314 779.315 107.565 778.707 107.565Z" fill="#1A1A1A"/>
<path d="M944.737 118.882C944.737 118.27 944.719 117.685 944.683 117.127M944.683 117.127C944.363 112.059 942.691 109.194 941.33 107.766C938.977 110.234 933.545 120.118 940.187 127.529L950.92 122.589C951.134 123.49 951.395 124.383 951.703 125.268C952.403 127.289 952.754 128.301 953.919 129.151C955.083 130 956.37 130 958.941 130H960.057C962.629 130 963.916 130 965.08 129.151C966.243 128.301 966.596 127.291 967.296 125.268C967.602 124.381 967.863 123.488 968.079 122.587L978.812 127.529C985.456 120.118 980.022 110.234 977.671 107.766C976.308 109.196 974.633 112.059 974.318 117.127M944.683 117.127L947.153 116.159C948.524 115.622 949.208 115.354 949.599 114.817C949.991 114.28 950.06 113.452 950.2 111.798C951.075 101.375 955.958 91.78 959.499 88C963.041 91.78 967.924 101.375 968.799 111.798C968.939 113.454 969.008 114.28 969.4 114.817C969.791 115.354 970.475 115.622 971.846 116.159L974.316 117.127C974.28 117.685 974.262 118.27 974.262 118.882M959.499 104.333V106.667M977.5 99.6667V97.3333M977.5 90.3333V88M941.499 99.6667V97.3333M941.499 90.3333V88" stroke="#1A1A1A" stroke-width="4" stroke-linecap="round" stroke-linejoin="round"/>
<path d="M559.544 88C562.886 87.9968 566.186 88.6871 569.206 90.0205C572.225 91.354 574.888 93.2973 577 95.7091L562.732 109L577 122.291C574.888 124.703 572.225 126.646 569.206 127.979C566.186 129.313 562.886 130.003 559.544 130C547.093 130 537 120.598 537 109C537 97.4017 547.093 88 559.544 88ZM559.544 94.3C558.647 94.3 557.787 94.6319 557.153 95.2226C556.519 95.8134 556.162 96.6146 556.162 97.45C556.162 98.2854 556.519 99.0867 557.153 99.6774C557.787 100.268 558.647 100.6 559.544 100.6C560.441 100.6 561.301 100.268 561.935 99.6774C562.569 99.0867 562.926 98.2854 562.926 97.45C562.926 96.6146 562.569 95.8134 561.935 95.2226C561.301 94.6319 560.441 94.3 559.544 94.3Z" fill="#1A1A1A"/>
<path d="M1351 130C1347.1 130 1343.79 128.569 1341.08 125.706C1338.36 122.844 1337 119.357 1337 115.245V106.814H1365V115.245C1365 119.356 1363.64 122.843 1360.93 125.706C1358.21 128.57 1354.9 130.001 1351 130ZM1337 102.599C1337 98.91 1338.13 95.6871 1340.4 92.9301C1342.67 90.1731 1345.53 88.5298 1349 88V102.599H1337ZM1353 102.599V88.0021C1356.47 88.5291 1359.33 90.1717 1361.6 92.9301C1363.87 95.6885 1365 98.9114 1365 102.599H1353Z" fill="#1A1A1A"/>
</svg>
