<svg width="64" height="64" viewBox="0 0 64 64" fill="none" xmlns="http://www.w3.org/2000/svg">
<rect width="64" height="64" rx="5" fill="black"/>
<path d="M37.3333 29.5H26.6667C25.2522 29.5 23.8956 28.9732 22.8954 28.0355C21.8952 27.0979 21.3333 25.8261 21.3333 24.5C21.3333 23.1739 21.8952 21.9021 22.8954 20.9645C23.8956 20.0268 25.2522 19.5 26.6667 19.5H40C40.7072 19.5 41.3855 19.7634 41.8856 20.2322C42.3857 20.7011 42.6667 21.337 42.6667 22C42.6667 22.663 42.9476 23.2989 43.4477 23.7678C43.9478 24.2366 44.6261 24.5 45.3333 24.5C46.0406 24.5 46.7189 24.2366 47.219 23.7678C47.7191 23.2989 48 22.663 48 22C48 20.0109 47.1571 18.1032 45.6569 16.6967C44.1566 15.2902 42.1217 14.5 40 14.5H34.6667V9.5C34.6667 8.83696 34.3857 8.20107 33.8856 7.73223C33.3855 7.26339 32.7072 7 32 7C31.2928 7 30.6145 7.26339 30.1144 7.73223C29.6143 8.20107 29.3333 8.83696 29.3333 9.5V14.5H26.6667C23.8377 14.5 21.1246 15.5536 19.1242 17.4289C17.1238 19.3043 16 21.8478 16 24.5C16 27.1522 17.1238 29.6957 19.1242 31.5711C21.1246 33.4464 23.8377 34.5 26.6667 34.5H37.3333C38.7478 34.5 40.1044 35.0268 41.1046 35.9645C42.1048 36.9021 42.6667 38.1739 42.6667 39.5C42.6667 40.8261 42.1048 42.0979 41.1046 43.0355C40.1044 43.9732 38.7478 44.5 37.3333 44.5H24C23.2928 44.5 22.6145 44.2366 22.1144 43.7678C21.6143 43.2989 21.3333 42.663 21.3333 42C21.3333 41.337 21.0524 40.7011 20.5523 40.2322C20.0522 39.7634 19.3739 39.5 18.6667 39.5C17.9594 39.5 17.2811 39.7634 16.781 40.2322C16.281 40.7011 16 41.337 16 42C16 43.9891 16.8429 45.8968 18.3431 47.3033C19.8434 48.7098 21.8783 49.5 24 49.5H29.3333V54.5C29.3333 55.163 29.6143 55.7989 30.1144 56.2678C30.6145 56.7366 31.2928 57 32 57C32.7072 57 33.3855 56.7366 33.8856 56.2678C34.3857 55.7989 34.6667 55.163 34.6667 54.5V49.5H37.3333C40.1623 49.5 42.8754 48.4464 44.8758 46.5711C46.8762 44.6957 48 42.1522 48 39.5C48 36.8478 46.8762 34.3043 44.8758 32.4289C42.8754 30.5536 40.1623 29.5 37.3333 29.5Z" fill="#00D160"/>
<path d="M62 32C62 39.9565 58.8393 47.5871 53.2132 53.2132C47.5871 58.8393 39.9565 62 32 62C24.0435 62 16.4129 58.8393 10.7868 53.2132C5.16071 47.5871 2 39.9565 2 32C2 24.0435 5.16071 16.4129 10.7868 10.7868C16.4129 5.16071 24.0435 2 32 2C39.9565 2 47.5871 5.16071 53.2132 10.7868C58.8393 16.4129 62 24.0435 62 32ZM49.19 51.8375L26.735 29.39C22.1562 24.5 25.3565 24.1906 24.9688 24.9688C24.581 25.7469 32.9388 29.4175 32.9382 30.2869L38.0938 35.446L35.2812 37.1562L28.7188 30.8299C28.7188 27.9611 27.5187 31.0656 24.0688 26.72L12.1588 14.81C7.81501 19.8268 5.53256 26.3027 5.77069 32.9344C6.00882 39.5662 8.74985 45.8616 13.4422 50.554C18.1346 55.2464 24.4301 57.9874 31.0618 58.2256C37.6936 58.4637 44.1732 56.1812 49.19 51.8375ZM51.8413 49.19C56.185 44.1732 58.4674 37.6973 58.2293 31.0656C57.9912 24.4338 55.2501 18.1384 50.5578 13.446C45.8654 8.7536 39.5699 6.01257 32.9382 5.77444C26.3064 5.53631 19.8306 7.81876 14.8138 12.1625L27.5187 24.8675C29.1875 26.375 29.6562 27.3125 30.9012 28.25L32 32.4688L23.5625 24.5C23.5626 24.3219 23.5625 20.9113 27.7812 27.3125C26.735 24.0838 21.5262 22.2318 21.6875 22.1562C22.5876 21.0024 25.7296 24.0085 25.9062 24.0312C26.0829 24.054 33.269 32.9797 33.4059 33.0937L32.9382 31.0656C33.3882 31.4406 34.6512 32.4688 34.6512 32L36.6875 34.8125L37.19 34.5425L51.8413 49.19ZM30.9012 28.25L35.75 33.0988L31.0618 33.0886L30.9012 28.25Z" fill="#FF0000"/>
</svg>
